<svg xmlns="http://www.w3.org/2000/svg" xmlns:xlink="http://www.w3.org/1999/xlink" width="1472" zoomAndPan="magnify" viewBox="0 0 1104 623.999998" height="832" preserveAspectRatio="xMidYMid meet" version="1.0"><defs><g/><clipPath id="fef5b26e32"><path d="M 230.265625 502.996094 L 1014.765625 502.996094 L 1014.765625 540.496094 L 230.265625 540.496094 Z M 230.265625 502.996094 " clip-rule="nonzero"/></clipPath><clipPath id="d30ed6955b"><path d="M 35.203125 139.765625 L 156 139.765625 L 156 252 L 35.203125 252 Z M 35.203125 139.765625 " clip-rule="nonzero"/></clipPath><clipPath id="42490e53de"><path d="M 35.203125 264 L 156 264 L 156 521.515625 L 35.203125 521.515625 Z M 35.203125 264 " clip-rule="nonzero"/></clipPath><clipPath id="3c76c1ab95"><path d="M 167 139.765625 L 287.953125 139.765625 L 287.953125 252 L 167 252 Z M 167 139.765625 " clip-rule="nonzero"/></clipPath><clipPath id="1dffb64b92"><path d="M 167 264 L 287.953125 264 L 287.953125 521.515625 L 167 521.515625 Z M 167 264 " clip-rule="nonzero"/></clipPath><clipPath id="c5271a643a"><path d="M 995 350 L 1041.320312 350 L 1041.320312 408 L 995 408 Z M 995 350 " clip-rule="nonzero"/></clipPath><clipPath id="14c8934c00"><path d="M 911.570312 212.023438 L 959 212.023438 L 959 270 L 911.570312 270 Z M 911.570312 212.023438 " clip-rule="nonzero"/></clipPath><clipPath id="8e604f5611"><path d="M 978 400 L 1018 400 L 1018 449.773438 L 978 449.773438 Z M 978 400 " clip-rule="nonzero"/></clipPath></defs><g clip-path="url(#fef5b26e32)"><path stroke-linecap="butt" transform="matrix(0.163496, 0, 0, 0.163114, 231.433906, 502.994182)" fill="none" stroke-linejoin="miter" d="M -0.00191184 15.003118 L 2198.996703 15.003118 L 2407.000722 209.508103 L 2621.001641 15.003118 L 4783.994965 15.003118 " stroke="#000000" stroke-width="30" stroke-opacity="1" stroke-miterlimit="10"/></g><path stroke-linecap="butt" transform="matrix(0.163496, 0, 0, 0.163114, 231.433906, 502.994182)" fill="none" stroke-linejoin="miter" d="M 2550.257338 95.492068 L 4594.005537 95.492068 " stroke="#000000" stroke-width="30" stroke-opacity="1" stroke-miterlimit="10"/><path stroke-linecap="butt" transform="matrix(0.163496, 0, 0, 0.163114, 231.433906, 502.994182)" fill="none" stroke-linejoin="miter" d="M 2538.335215 95.492068 L 2550.257338 95.492068 " stroke="#000000" stroke-width="30" stroke-opacity="1" stroke-miterlimit="10"/><path stroke-linecap="butt" transform="matrix(0.163496, 0, 0, 0.163114, 231.433906, 502.994182)" fill="none" stroke-linejoin="miter" d="M 2533.843513 95.492068 L 2538.335215 95.492068 " stroke="#000000" stroke-width="30" stroke-opacity="1" stroke-miterlimit="10"/><path stroke-linecap="butt" transform="matrix(0.163496, 0, 0, 0.163114, 231.433906, 502.994182)" fill="none" stroke-linejoin="miter" d="M 236.003568 95.492068 L 2281.041936 95.492068 " stroke="#000000" stroke-width="30" stroke-opacity="1" stroke-miterlimit="10"/><g clip-path="url(#d30ed6955b)"><path fill="#000000" d="M 129.207031 139.765625 L 129.207031 225.335938 L 35.265625 225.335938 L 35.265625 251.589844 L 155.460938 251.589844 L 155.460938 139.765625 Z M 129.207031 139.765625 " fill-opacity="1" fill-rule="nonzero"/></g><g clip-path="url(#42490e53de)"><path fill="#000000" d="M 129.207031 521.773438 L 129.207031 290.34375 L 35.265625 290.34375 L 35.265625 264.089844 L 155.460938 264.089844 L 155.460938 521.773438 Z M 129.207031 521.773438 " fill-opacity="1" fill-rule="nonzero"/></g><g clip-path="url(#3c76c1ab95)"><path fill="#000000" d="M 193.800781 139.765625 L 193.800781 225.335938 L 287.738281 225.335938 L 287.738281 251.589844 L 167.546875 251.589844 L 167.546875 139.765625 Z M 193.800781 139.765625 " fill-opacity="1" fill-rule="nonzero"/></g><g clip-path="url(#1dffb64b92)"><path fill="#000000" d="M 193.800781 521.773438 L 193.800781 290.34375 L 287.738281 290.34375 L 287.738281 264.089844 L 167.546875 264.089844 L 167.546875 521.773438 Z M 193.800781 521.773438 " fill-opacity="1" fill-rule="nonzero"/></g><g fill="#000000" fill-opacity="1"><g transform="translate(310.663909, 350.805249)"><g><path d="M 35.546875 -10.640625 L 35.546875 0 L 4.703125 0 L 4.703125 -53.234375 L 35.546875 -53.234375 L 35.546875 -42.578125 L 16.4375 -42.578125 L 16.4375 -32.015625 L 34.75 -32.015625 L 34.75 -21.375 L 16.4375 -21.375 L 16.4375 -10.640625 Z M 35.546875 -10.640625 "/></g></g></g><g fill="#000000" fill-opacity="1"><g transform="translate(354.648254, 350.805249)"><g><path d="M 53.546875 -53.234375 L 32.015625 0 L 21.921875 0 L 0.390625 -53.234375 L 13.078125 -53.234375 L 24.03125 -23.328125 L 26.921875 -14.953125 L 29.828125 -23.328125 L 40.859375 -53.234375 Z M 53.546875 -53.234375 "/></g></g></g><g fill="#000000" fill-opacity="1"><g transform="translate(412.328364, 350.805249)"><g><path d="M 33.65625 -20.359375 L 26.921875 -39.296875 L 20.203125 -20.359375 Z M 53.546875 0 L 40.9375 0 L 37.109375 -10.71875 L 16.828125 -10.71875 L 13 0 L 0.390625 0 L 22 -53.234375 L 31.9375 -53.234375 Z M 53.546875 0 "/></g></g></g><g fill="#000000" fill-opacity="1"><g transform="translate(470.008479, 350.805249)"><g><path d="M 46.5 0 L 34.75 0 L 16.4375 -33.1875 L 16.4375 0 L 4.703125 0 L 4.703125 -53.234375 L 16.4375 -53.234375 L 34.75 -20.046875 L 34.75 -53.234375 L 46.5 -53.234375 Z M 46.5 0 "/></g></g></g><g fill="#000000" fill-opacity="1"><g transform="translate(524.949435, 350.805249)"><g><path d="M 31.3125 -43.046875 C 28.488281 -43.046875 25.90625 -42.289062 23.5625 -40.78125 C 21.21875 -39.269531 19.335938 -37.257812 17.921875 -34.75 C 16.515625 -32.25 15.8125 -29.484375 15.8125 -26.453125 C 15.8125 -23.484375 16.515625 -20.734375 17.921875 -18.203125 C 19.335938 -15.671875 21.21875 -13.644531 23.5625 -12.125 C 25.90625 -10.613281 28.488281 -9.859375 31.3125 -9.859375 C 33.03125 -9.859375 34.84375 -10.101562 36.75 -10.59375 C 38.65625 -11.09375 40.429688 -12.046875 42.078125 -13.453125 C 43.722656 -14.867188 45.015625 -16.90625 45.953125 -19.5625 L 32.40625 -19.5625 L 32.40625 -28.421875 L 58.625 -28.421875 L 58.625 -26.609375 C 58.625 -22.859375 57.921875 -19.320312 56.515625 -16 C 55.109375 -12.6875 53.148438 -9.765625 50.640625 -7.234375 C 48.140625 -4.703125 45.242188 -2.734375 41.953125 -1.328125 C 38.671875 0.078125 35.125 0.78125 31.3125 0.78125 C 27.550781 0.78125 24.015625 0.0664062 20.703125 -1.359375 C 17.390625 -2.796875 14.476562 -4.765625 11.96875 -7.265625 C 9.46875 -9.773438 7.5 -12.6875 6.0625 -16 C 4.625 -19.320312 3.90625 -22.859375 3.90625 -26.609375 C 3.90625 -30.367188 4.625 -33.90625 6.0625 -37.21875 C 7.5 -40.53125 9.46875 -43.4375 11.96875 -45.9375 C 14.476562 -48.445312 17.390625 -50.421875 20.703125 -51.859375 C 24.015625 -53.296875 27.550781 -54.015625 31.3125 -54.015625 C 35.226562 -54.015625 38.929688 -53.21875 42.421875 -51.625 C 45.921875 -50.03125 48.972656 -47.835938 51.578125 -45.046875 C 54.191406 -42.253906 56.097656 -39.007812 57.296875 -35.3125 L 44.390625 -35.3125 C 43.078125 -38.125 41.21875 -40.113281 38.8125 -41.28125 C 36.414062 -42.457031 33.914062 -43.046875 31.3125 -43.046875 Z M 31.3125 -43.046875 "/></g></g></g><g fill="#000000" fill-opacity="1"><g transform="translate(590.064385, 350.805249)"><g><path d="M 35.546875 -10.640625 L 35.546875 0 L 4.703125 0 L 4.703125 -53.234375 L 35.546875 -53.234375 L 35.546875 -42.578125 L 16.4375 -42.578125 L 16.4375 -32.015625 L 34.75 -32.015625 L 34.75 -21.375 L 16.4375 -21.375 L 16.4375 -10.640625 Z M 35.546875 -10.640625 "/></g></g></g><g fill="#000000" fill-opacity="1"><g transform="translate(634.048724, 350.805249)"><g><path d="M 4.703125 0 L 4.703125 -53.234375 L 16.4375 -53.234375 L 16.4375 -10.640625 L 35.546875 -10.640625 L 35.546875 0 Z M 4.703125 0 "/></g></g></g><g fill="#000000" fill-opacity="1"><g transform="translate(676.076517, 350.805249)"><g><path d="M 16.4375 0 L 4.703125 0 L 4.703125 -53.234375 L 16.4375 -53.234375 Z M 16.4375 0 "/></g></g></g><g fill="#000000" fill-opacity="1"><g transform="translate(700.96503, 350.805249)"><g><path d="M 43.140625 -18.078125 L 56.203125 -18.078125 C 55.003906 -14.429688 53.125 -11.1875 50.5625 -8.34375 C 48.007812 -5.5 44.984375 -3.265625 41.484375 -1.640625 C 37.992188 -0.0234375 34.210938 0.78125 30.140625 0.78125 C 26.378906 0.78125 22.84375 0.078125 19.53125 -1.328125 C 16.21875 -2.734375 13.296875 -4.703125 10.765625 -7.234375 C 8.234375 -9.765625 6.257812 -12.6875 4.84375 -16 C 3.4375 -19.320312 2.734375 -22.859375 2.734375 -26.609375 C 2.734375 -30.367188 3.4375 -33.90625 4.84375 -37.21875 C 6.257812 -40.53125 8.234375 -43.453125 10.765625 -45.984375 C 13.296875 -48.515625 16.21875 -50.484375 19.53125 -51.890625 C 22.84375 -53.304688 26.378906 -54.015625 30.140625 -54.015625 C 34.210938 -54.015625 37.984375 -53.203125 41.453125 -51.578125 C 44.921875 -49.960938 47.929688 -47.757812 50.484375 -44.96875 C 53.046875 -42.175781 54.925781 -38.957031 56.125 -35.3125 L 43.046875 -35.3125 C 41.953125 -37.707031 40.203125 -39.59375 37.796875 -40.96875 C 35.398438 -42.351562 32.847656 -43.046875 30.140625 -43.046875 C 27.265625 -43.046875 24.648438 -42.300781 22.296875 -40.8125 C 19.953125 -39.332031 18.085938 -37.351562 16.703125 -34.875 C 15.328125 -32.394531 14.640625 -29.640625 14.640625 -26.609375 C 14.640625 -23.585938 15.328125 -20.835938 16.703125 -18.359375 C 18.085938 -15.878906 19.953125 -13.894531 22.296875 -12.40625 C 24.648438 -10.914062 27.265625 -10.171875 30.140625 -10.171875 C 32.898438 -10.171875 35.476562 -10.898438 37.875 -12.359375 C 40.28125 -13.828125 42.035156 -15.734375 43.140625 -18.078125 Z M 43.140625 -18.078125 "/></g></g></g><g fill="#000000" fill-opacity="1"><g transform="translate(762.871253, 350.805249)"><g><path d="M 33.65625 -20.359375 L 26.921875 -39.296875 L 20.203125 -20.359375 Z M 53.546875 0 L 40.9375 0 L 37.109375 -10.71875 L 16.828125 -10.71875 L 13 0 L 0.390625 0 L 22 -53.234375 L 31.9375 -53.234375 Z M 53.546875 0 "/></g></g></g><g fill="#000000" fill-opacity="1"><g transform="translate(820.551357, 350.805249)"><g><path d="M 4.703125 0 L 4.703125 -53.234375 L 16.4375 -53.234375 L 16.4375 -10.640625 L 35.546875 -10.640625 L 35.546875 0 Z M 4.703125 0 "/></g></g></g><g fill="#000000" fill-opacity="1"><g transform="translate(212.634099, 426.715405)"><g><path d="M 30.375 -15.578125 C 30.375 -17.296875 29.734375 -18.796875 28.453125 -20.078125 C 27.171875 -21.359375 25.644531 -22 23.875 -22 L 16.4375 -22 L 16.4375 -9.15625 L 23.875 -9.15625 C 25.644531 -9.15625 27.171875 -9.78125 28.453125 -11.03125 C 29.734375 -12.289062 30.375 -13.804688 30.375 -15.578125 Z M 26.6875 -37.8125 C 26.6875 -39.53125 26.070312 -40.988281 24.84375 -42.1875 C 23.625 -43.394531 22.179688 -44 20.515625 -44 L 16.4375 -44 L 16.4375 -31.625 L 20.515625 -31.625 C 22.179688 -31.625 23.625 -32.238281 24.84375 -33.46875 C 26.070312 -34.695312 26.6875 -36.144531 26.6875 -37.8125 Z M 42.34375 -15.265625 C 42.34375 -10.671875 40.929688 -6.976562 38.109375 -4.1875 C 35.296875 -1.394531 31.332031 0 26.21875 0 L 4.703125 0 L 4.703125 -53.234375 L 23.015625 -53.234375 C 26.046875 -53.234375 28.664062 -52.628906 30.875 -51.421875 C 33.09375 -50.222656 34.816406 -48.617188 36.046875 -46.609375 C 37.273438 -44.609375 37.890625 -42.378906 37.890625 -39.921875 C 37.890625 -37.210938 37.328125 -34.878906 36.203125 -32.921875 C 35.078125 -30.960938 33.523438 -29.539062 31.546875 -28.65625 C 34.523438 -27.976562 37.066406 -26.476562 39.171875 -24.15625 C 41.285156 -21.832031 42.34375 -18.867188 42.34375 -15.265625 Z M 42.34375 -15.265625 "/></g></g></g><g fill="#000000" fill-opacity="1"><g transform="translate(259.514105, 426.715405)"><g><path d="M 35.78125 -53.234375 L 47.515625 -53.234375 L 47.515625 -20.75 C 47.515625 -13.644531 45.582031 -8.28125 41.71875 -4.65625 C 37.863281 -1.03125 32.460938 0.78125 25.515625 0.78125 C 18.578125 0.78125 13.175781 -1.03125 9.3125 -4.65625 C 5.445312 -8.28125 3.515625 -13.644531 3.515625 -20.75 L 3.515625 -53.234375 L 15.265625 -53.234375 L 15.265625 -22.46875 C 15.265625 -18.8125 15.976562 -15.976562 17.40625 -13.96875 C 18.84375 -11.957031 21.546875 -10.953125 25.515625 -10.953125 C 29.535156 -10.953125 32.25 -11.957031 33.65625 -13.96875 C 35.070312 -15.976562 35.78125 -18.8125 35.78125 -22.46875 Z M 35.78125 -53.234375 "/></g></g></g><g fill="#000000" fill-opacity="1"><g transform="translate(314.298532, 426.715405)"><g><path d="M 25.359375 -8.296875 C 26.609375 -8.296875 27.960938 -8.488281 29.421875 -8.875 C 30.890625 -9.269531 32.15625 -9.925781 33.21875 -10.84375 C 34.289062 -11.757812 34.828125 -13 34.828125 -14.5625 C 34.828125 -16.019531 34.265625 -17.191406 33.140625 -18.078125 C 32.023438 -18.960938 30.550781 -19.691406 28.71875 -20.265625 C 26.894531 -20.847656 24.898438 -21.382812 22.734375 -21.875 C 20.566406 -22.375 18.390625 -22.972656 16.203125 -23.671875 C 14.015625 -24.378906 12.003906 -25.304688 10.171875 -26.453125 C 8.347656 -27.609375 6.875 -29.097656 5.75 -30.921875 C 4.632812 -32.742188 4.078125 -35.066406 4.078125 -37.890625 C 4.078125 -40.648438 4.648438 -43.035156 5.796875 -45.046875 C 6.941406 -47.054688 8.46875 -48.726562 10.375 -50.0625 C 12.28125 -51.394531 14.421875 -52.382812 16.796875 -53.03125 C 19.171875 -53.6875 21.554688 -54.015625 23.953125 -54.015625 C 27.609375 -54.015625 31.023438 -53.4375 34.203125 -52.28125 C 37.390625 -51.132812 39.988281 -49.320312 42 -46.84375 C 44.007812 -44.375 45.066406 -41.101562 45.171875 -37.03125 L 33.8125 -37.03125 C 33.5 -39.789062 32.535156 -41.707031 30.921875 -42.78125 C 29.304688 -43.851562 27.035156 -44.390625 24.109375 -44.390625 C 23.015625 -44.390625 21.851562 -44.207031 20.625 -43.84375 C 19.394531 -43.476562 18.347656 -42.890625 17.484375 -42.078125 C 16.628906 -41.265625 16.203125 -40.179688 16.203125 -38.828125 C 16.203125 -37.472656 16.757812 -36.398438 17.875 -35.609375 C 19 -34.828125 20.472656 -34.175781 22.296875 -33.65625 C 24.128906 -33.132812 26.140625 -32.640625 28.328125 -32.171875 C 30.523438 -31.703125 32.707031 -31.128906 34.875 -30.453125 C 37.039062 -29.773438 39.035156 -28.847656 40.859375 -27.671875 C 42.691406 -26.492188 44.164062 -24.96875 45.28125 -23.09375 C 46.40625 -21.21875 46.96875 -18.816406 46.96875 -15.890625 C 46.96875 -12.753906 46.34375 -10.09375 45.09375 -7.90625 C 43.84375 -5.71875 42.160156 -3.957031 40.046875 -2.625 C 37.929688 -1.289062 35.554688 -0.3125 32.921875 0.3125 C 30.285156 0.9375 27.609375 1.25 24.890625 1.25 C 20.972656 1.25 17.304688 0.585938 13.890625 -0.734375 C 10.472656 -2.066406 7.707031 -4.113281 5.59375 -6.875 C 3.476562 -9.644531 2.394531 -13.195312 2.34375 -17.53125 L 14.25 -17.53125 C 14.40625 -14.351562 15.578125 -12.019531 17.765625 -10.53125 C 19.960938 -9.039062 22.492188 -8.296875 25.359375 -8.296875 Z M 25.359375 -8.296875 "/></g></g></g><g fill="#000000" fill-opacity="1"><g transform="translate(367.361209, 426.715405)"><g><path d="M 16.4375 0 L 4.703125 0 L 4.703125 -53.234375 L 16.4375 -53.234375 Z M 16.4375 0 "/></g></g></g><g fill="#000000" fill-opacity="1"><g transform="translate(392.249721, 426.715405)"><g><path d="M 46.5 0 L 34.75 0 L 16.4375 -33.1875 L 16.4375 0 L 4.703125 0 L 4.703125 -53.234375 L 16.4375 -53.234375 L 34.75 -20.046875 L 34.75 -53.234375 L 46.5 -53.234375 Z M 46.5 0 "/></g></g></g><g fill="#000000" fill-opacity="1"><g transform="translate(447.190677, 426.715405)"><g><path d="M 35.546875 -10.640625 L 35.546875 0 L 4.703125 0 L 4.703125 -53.234375 L 35.546875 -53.234375 L 35.546875 -42.578125 L 16.4375 -42.578125 L 16.4375 -32.015625 L 34.75 -32.015625 L 34.75 -21.375 L 16.4375 -21.375 L 16.4375 -10.640625 Z M 35.546875 -10.640625 "/></g></g></g><g fill="#000000" fill-opacity="1"><g transform="translate(491.175017, 426.715405)"><g><path d="M 25.359375 -8.296875 C 26.609375 -8.296875 27.960938 -8.488281 29.421875 -8.875 C 30.890625 -9.269531 32.15625 -9.925781 33.21875 -10.84375 C 34.289062 -11.757812 34.828125 -13 34.828125 -14.5625 C 34.828125 -16.019531 34.265625 -17.191406 33.140625 -18.078125 C 32.023438 -18.960938 30.550781 -19.691406 28.71875 -20.265625 C 26.894531 -20.847656 24.898438 -21.382812 22.734375 -21.875 C 20.566406 -22.375 18.390625 -22.972656 16.203125 -23.671875 C 14.015625 -24.378906 12.003906 -25.304688 10.171875 -26.453125 C 8.347656 -27.609375 6.875 -29.097656 5.75 -30.921875 C 4.632812 -32.742188 4.078125 -35.066406 4.078125 -37.890625 C 4.078125 -40.648438 4.648438 -43.035156 5.796875 -45.046875 C 6.941406 -47.054688 8.46875 -48.726562 10.375 -50.0625 C 12.28125 -51.394531 14.421875 -52.382812 16.796875 -53.03125 C 19.171875 -53.6875 21.554688 -54.015625 23.953125 -54.015625 C 27.609375 -54.015625 31.023438 -53.4375 34.203125 -52.28125 C 37.390625 -51.132812 39.988281 -49.320312 42 -46.84375 C 44.007812 -44.375 45.066406 -41.101562 45.171875 -37.03125 L 33.8125 -37.03125 C 33.5 -39.789062 32.535156 -41.707031 30.921875 -42.78125 C 29.304688 -43.851562 27.035156 -44.390625 24.109375 -44.390625 C 23.015625 -44.390625 21.851562 -44.207031 20.625 -43.84375 C 19.394531 -43.476562 18.347656 -42.890625 17.484375 -42.078125 C 16.628906 -41.265625 16.203125 -40.179688 16.203125 -38.828125 C 16.203125 -37.472656 16.757812 -36.398438 17.875 -35.609375 C 19 -34.828125 20.472656 -34.175781 22.296875 -33.65625 C 24.128906 -33.132812 26.140625 -32.640625 28.328125 -32.171875 C 30.523438 -31.703125 32.707031 -31.128906 34.875 -30.453125 C 37.039062 -29.773438 39.035156 -28.847656 40.859375 -27.671875 C 42.691406 -26.492188 44.164062 -24.96875 45.28125 -23.09375 C 46.40625 -21.21875 46.96875 -18.816406 46.96875 -15.890625 C 46.96875 -12.753906 46.34375 -10.09375 45.09375 -7.90625 C 43.84375 -5.71875 42.160156 -3.957031 40.046875 -2.625 C 37.929688 -1.289062 35.554688 -0.3125 32.921875 0.3125 C 30.285156 0.9375 27.609375 1.25 24.890625 1.25 C 20.972656 1.25 17.304688 0.585938 13.890625 -0.734375 C 10.472656 -2.066406 7.707031 -4.113281 5.59375 -6.875 C 3.476562 -9.644531 2.394531 -13.195312 2.34375 -17.53125 L 14.25 -17.53125 C 14.40625 -14.351562 15.578125 -12.019531 17.765625 -10.53125 C 19.960938 -9.039062 22.492188 -8.296875 25.359375 -8.296875 Z M 25.359375 -8.296875 "/></g></g></g><g fill="#000000" fill-opacity="1"><g transform="translate(544.237683, 426.715405)"><g><path d="M 25.359375 -8.296875 C 26.609375 -8.296875 27.960938 -8.488281 29.421875 -8.875 C 30.890625 -9.269531 32.15625 -9.925781 33.21875 -10.84375 C 34.289062 -11.757812 34.828125 -13 34.828125 -14.5625 C 34.828125 -16.019531 34.265625 -17.191406 33.140625 -18.078125 C 32.023438 -18.960938 30.550781 -19.691406 28.71875 -20.265625 C 26.894531 -20.847656 24.898438 -21.382812 22.734375 -21.875 C 20.566406 -22.375 18.390625 -22.972656 16.203125 -23.671875 C 14.015625 -24.378906 12.003906 -25.304688 10.171875 -26.453125 C 8.347656 -27.609375 6.875 -29.097656 5.75 -30.921875 C 4.632812 -32.742188 4.078125 -35.066406 4.078125 -37.890625 C 4.078125 -40.648438 4.648438 -43.035156 5.796875 -45.046875 C 6.941406 -47.054688 8.46875 -48.726562 10.375 -50.0625 C 12.28125 -51.394531 14.421875 -52.382812 16.796875 -53.03125 C 19.171875 -53.6875 21.554688 -54.015625 23.953125 -54.015625 C 27.609375 -54.015625 31.023438 -53.4375 34.203125 -52.28125 C 37.390625 -51.132812 39.988281 -49.320312 42 -46.84375 C 44.007812 -44.375 45.066406 -41.101562 45.171875 -37.03125 L 33.8125 -37.03125 C 33.5 -39.789062 32.535156 -41.707031 30.921875 -42.78125 C 29.304688 -43.851562 27.035156 -44.390625 24.109375 -44.390625 C 23.015625 -44.390625 21.851562 -44.207031 20.625 -43.84375 C 19.394531 -43.476562 18.347656 -42.890625 17.484375 -42.078125 C 16.628906 -41.265625 16.203125 -40.179688 16.203125 -38.828125 C 16.203125 -37.472656 16.757812 -36.398438 17.875 -35.609375 C 19 -34.828125 20.472656 -34.175781 22.296875 -33.65625 C 24.128906 -33.132812 26.140625 -32.640625 28.328125 -32.171875 C 30.523438 -31.703125 32.707031 -31.128906 34.875 -30.453125 C 37.039062 -29.773438 39.035156 -28.847656 40.859375 -27.671875 C 42.691406 -26.492188 44.164062 -24.96875 45.28125 -23.09375 C 46.40625 -21.21875 46.96875 -18.816406 46.96875 -15.890625 C 46.96875 -12.753906 46.34375 -10.09375 45.09375 -7.90625 C 43.84375 -5.71875 42.160156 -3.957031 40.046875 -2.625 C 37.929688 -1.289062 35.554688 -0.3125 32.921875 0.3125 C 30.285156 0.9375 27.609375 1.25 24.890625 1.25 C 20.972656 1.25 17.304688 0.585938 13.890625 -0.734375 C 10.472656 -2.066406 7.707031 -4.113281 5.59375 -6.875 C 3.476562 -9.644531 2.394531 -13.195312 2.34375 -17.53125 L 14.25 -17.53125 C 14.40625 -14.351562 15.578125 -12.019531 17.765625 -10.53125 C 19.960938 -9.039062 22.492188 -8.296875 25.359375 -8.296875 Z M 25.359375 -8.296875 "/></g></g></g><g fill="#000000" fill-opacity="1"><g transform="translate(597.300369, 426.715405)"><g/></g></g><g fill="#000000" fill-opacity="1"><g transform="translate(620.623635, 426.715405)"><g><path d="M 25.359375 -8.296875 C 26.609375 -8.296875 27.960938 -8.488281 29.421875 -8.875 C 30.890625 -9.269531 32.15625 -9.925781 33.21875 -10.84375 C 34.289062 -11.757812 34.828125 -13 34.828125 -14.5625 C 34.828125 -16.019531 34.265625 -17.191406 33.140625 -18.078125 C 32.023438 -18.960938 30.550781 -19.691406 28.71875 -20.265625 C 26.894531 -20.847656 24.898438 -21.382812 22.734375 -21.875 C 20.566406 -22.375 18.390625 -22.972656 16.203125 -23.671875 C 14.015625 -24.378906 12.003906 -25.304688 10.171875 -26.453125 C 8.347656 -27.609375 6.875 -29.097656 5.75 -30.921875 C 4.632812 -32.742188 4.078125 -35.066406 4.078125 -37.890625 C 4.078125 -40.648438 4.648438 -43.035156 5.796875 -45.046875 C 6.941406 -47.054688 8.46875 -48.726562 10.375 -50.0625 C 12.28125 -51.394531 14.421875 -52.382812 16.796875 -53.03125 C 19.171875 -53.6875 21.554688 -54.015625 23.953125 -54.015625 C 27.609375 -54.015625 31.023438 -53.4375 34.203125 -52.28125 C 37.390625 -51.132812 39.988281 -49.320312 42 -46.84375 C 44.007812 -44.375 45.066406 -41.101562 45.171875 -37.03125 L 33.8125 -37.03125 C 33.5 -39.789062 32.535156 -41.707031 30.921875 -42.78125 C 29.304688 -43.851562 27.035156 -44.390625 24.109375 -44.390625 C 23.015625 -44.390625 21.851562 -44.207031 20.625 -43.84375 C 19.394531 -43.476562 18.347656 -42.890625 17.484375 -42.078125 C 16.628906 -41.265625 16.203125 -40.179688 16.203125 -38.828125 C 16.203125 -37.472656 16.757812 -36.398438 17.875 -35.609375 C 19 -34.828125 20.472656 -34.175781 22.296875 -33.65625 C 24.128906 -33.132812 26.140625 -32.640625 28.328125 -32.171875 C 30.523438 -31.703125 32.707031 -31.128906 34.875 -30.453125 C 37.039062 -29.773438 39.035156 -28.847656 40.859375 -27.671875 C 42.691406 -26.492188 44.164062 -24.96875 45.28125 -23.09375 C 46.40625 -21.21875 46.96875 -18.816406 46.96875 -15.890625 C 46.96875 -12.753906 46.34375 -10.09375 45.09375 -7.90625 C 43.84375 -5.71875 42.160156 -3.957031 40.046875 -2.625 C 37.929688 -1.289062 35.554688 -0.3125 32.921875 0.3125 C 30.285156 0.9375 27.609375 1.25 24.890625 1.25 C 20.972656 1.25 17.304688 0.585938 13.890625 -0.734375 C 10.472656 -2.066406 7.707031 -4.113281 5.59375 -6.875 C 3.476562 -9.644531 2.394531 -13.195312 2.34375 -17.53125 L 14.25 -17.53125 C 14.40625 -14.351562 15.578125 -12.019531 17.765625 -10.53125 C 19.960938 -9.039062 22.492188 -8.296875 25.359375 -8.296875 Z M 25.359375 -8.296875 "/></g></g></g><g fill="#000000" fill-opacity="1"><g transform="translate(673.686321, 426.715405)"><g><path d="M 43.140625 -18.078125 L 56.203125 -18.078125 C 55.003906 -14.429688 53.125 -11.1875 50.5625 -8.34375 C 48.007812 -5.5 44.984375 -3.265625 41.484375 -1.640625 C 37.992188 -0.0234375 34.210938 0.78125 30.140625 0.78125 C 26.378906 0.78125 22.84375 0.078125 19.53125 -1.328125 C 16.21875 -2.734375 13.296875 -4.703125 10.765625 -7.234375 C 8.234375 -9.765625 6.257812 -12.6875 4.84375 -16 C 3.4375 -19.320312 2.734375 -22.859375 2.734375 -26.609375 C 2.734375 -30.367188 3.4375 -33.90625 4.84375 -37.21875 C 6.257812 -40.53125 8.234375 -43.453125 10.765625 -45.984375 C 13.296875 -48.515625 16.21875 -50.484375 19.53125 -51.890625 C 22.84375 -53.304688 26.378906 -54.015625 30.140625 -54.015625 C 34.210938 -54.015625 37.984375 -53.203125 41.453125 -51.578125 C 44.921875 -49.960938 47.929688 -47.757812 50.484375 -44.96875 C 53.046875 -42.175781 54.925781 -38.957031 56.125 -35.3125 L 43.046875 -35.3125 C 41.953125 -37.707031 40.203125 -39.59375 37.796875 -40.96875 C 35.398438 -42.351562 32.847656 -43.046875 30.140625 -43.046875 C 27.265625 -43.046875 24.648438 -42.300781 22.296875 -40.8125 C 19.953125 -39.332031 18.085938 -37.351562 16.703125 -34.875 C 15.328125 -32.394531 14.640625 -29.640625 14.640625 -26.609375 C 14.640625 -23.585938 15.328125 -20.835938 16.703125 -18.359375 C 18.085938 -15.878906 19.953125 -13.894531 22.296875 -12.40625 C 24.648438 -10.914062 27.265625 -10.171875 30.140625 -10.171875 C 32.898438 -10.171875 35.476562 -10.898438 37.875 -12.359375 C 40.28125 -13.828125 42.035156 -15.734375 43.140625 -18.078125 Z M 43.140625 -18.078125 "/></g></g></g><g fill="#000000" fill-opacity="1"><g transform="translate(735.592544, 426.715405)"><g><path d="M 33.96875 -53.234375 L 46.5 -53.234375 L 46.5 0 L 33.96875 0 L 33.96875 -21.375 L 16.4375 -21.375 L 16.4375 0 L 4.703125 0 L 4.703125 -53.234375 L 16.4375 -53.234375 L 16.4375 -32.015625 L 33.96875 -32.015625 Z M 33.96875 -53.234375 "/></g></g></g><g fill="#000000" fill-opacity="1"><g transform="translate(790.5335, 426.715405)"><g><path d="M 45.796875 -26.6875 C 45.796875 -29.457031 45.0625 -32.03125 43.59375 -34.40625 C 42.132812 -36.78125 40.21875 -38.695312 37.84375 -40.15625 C 35.46875 -41.613281 32.898438 -42.34375 30.140625 -42.34375 C 27.421875 -42.34375 24.859375 -41.613281 22.453125 -40.15625 C 20.054688 -38.695312 18.128906 -36.78125 16.671875 -34.40625 C 15.210938 -32.03125 14.484375 -29.457031 14.484375 -26.6875 C 14.484375 -23.976562 15.210938 -21.421875 16.671875 -19.015625 C 18.128906 -16.617188 20.054688 -14.675781 22.453125 -13.1875 C 24.859375 -11.695312 27.421875 -10.953125 30.140625 -10.953125 C 32.898438 -10.953125 35.46875 -11.695312 37.84375 -13.1875 C 40.21875 -14.675781 42.132812 -16.617188 43.59375 -19.015625 C 45.0625 -21.421875 45.796875 -23.976562 45.796875 -26.6875 Z M 57.53125 -26.609375 C 57.53125 -22.960938 56.800781 -19.476562 55.34375 -16.15625 C 53.882812 -12.84375 51.890625 -9.921875 49.359375 -7.390625 C 46.828125 -4.859375 43.914062 -2.863281 40.625 -1.40625 C 37.34375 0.0507812 33.847656 0.78125 30.140625 0.78125 C 26.484375 0.78125 23 0.0507812 19.6875 -1.40625 C 16.375 -2.863281 13.453125 -4.859375 10.921875 -7.390625 C 8.390625 -9.921875 6.390625 -12.84375 4.921875 -16.15625 C 3.460938 -19.476562 2.734375 -22.960938 2.734375 -26.609375 C 2.734375 -30.316406 3.460938 -33.8125 4.921875 -37.09375 C 6.390625 -40.382812 8.390625 -43.296875 10.921875 -45.828125 C 13.453125 -48.359375 16.375 -50.351562 19.6875 -51.8125 C 23 -53.28125 26.484375 -54.015625 30.140625 -54.015625 C 33.847656 -54.015625 37.34375 -53.28125 40.625 -51.8125 C 43.914062 -50.351562 46.828125 -48.359375 49.359375 -45.828125 C 51.890625 -43.296875 53.882812 -40.382812 55.34375 -37.09375 C 56.800781 -33.8125 57.53125 -30.316406 57.53125 -26.609375 Z M 57.53125 -26.609375 "/></g></g></g><g fill="#000000" fill-opacity="1"><g transform="translate(854.552823, 426.715405)"><g><path d="M 45.796875 -26.6875 C 45.796875 -29.457031 45.0625 -32.03125 43.59375 -34.40625 C 42.132812 -36.78125 40.21875 -38.695312 37.84375 -40.15625 C 35.46875 -41.613281 32.898438 -42.34375 30.140625 -42.34375 C 27.421875 -42.34375 24.859375 -41.613281 22.453125 -40.15625 C 20.054688 -38.695312 18.128906 -36.78125 16.671875 -34.40625 C 15.210938 -32.03125 14.484375 -29.457031 14.484375 -26.6875 C 14.484375 -23.976562 15.210938 -21.421875 16.671875 -19.015625 C 18.128906 -16.617188 20.054688 -14.675781 22.453125 -13.1875 C 24.859375 -11.695312 27.421875 -10.953125 30.140625 -10.953125 C 32.898438 -10.953125 35.46875 -11.695312 37.84375 -13.1875 C 40.21875 -14.675781 42.132812 -16.617188 43.59375 -19.015625 C 45.0625 -21.421875 45.796875 -23.976562 45.796875 -26.6875 Z M 57.53125 -26.609375 C 57.53125 -22.960938 56.800781 -19.476562 55.34375 -16.15625 C 53.882812 -12.84375 51.890625 -9.921875 49.359375 -7.390625 C 46.828125 -4.859375 43.914062 -2.863281 40.625 -1.40625 C 37.34375 0.0507812 33.847656 0.78125 30.140625 0.78125 C 26.484375 0.78125 23 0.0507812 19.6875 -1.40625 C 16.375 -2.863281 13.453125 -4.859375 10.921875 -7.390625 C 8.390625 -9.921875 6.390625 -12.84375 4.921875 -16.15625 C 3.460938 -19.476562 2.734375 -22.960938 2.734375 -26.609375 C 2.734375 -30.316406 3.460938 -33.8125 4.921875 -37.09375 C 6.390625 -40.382812 8.390625 -43.296875 10.921875 -45.828125 C 13.453125 -48.359375 16.375 -50.351562 19.6875 -51.8125 C 23 -53.28125 26.484375 -54.015625 30.140625 -54.015625 C 33.847656 -54.015625 37.34375 -53.28125 40.625 -51.8125 C 43.914062 -50.351562 46.828125 -48.359375 49.359375 -45.828125 C 51.890625 -43.296875 53.882812 -40.382812 55.34375 -37.09375 C 56.800781 -33.8125 57.53125 -30.316406 57.53125 -26.609375 Z M 57.53125 -26.609375 "/></g></g></g><g fill="#000000" fill-opacity="1"><g transform="translate(918.572105, 426.715405)"><g><path d="M 4.703125 0 L 4.703125 -53.234375 L 16.4375 -53.234375 L 16.4375 -10.640625 L 35.546875 -10.640625 L 35.546875 0 Z M 4.703125 0 "/></g></g></g><path fill="#000000" d="M 376.355469 248.890625 C 408.800781 248.839844 441.234375 249.792969 473.671875 250.269531 C 489.5 250.503906 505.332031 250.628906 521.160156 250.441406 C 528.839844 250.347656 536.523438 250.175781 544.191406 249.722656 C 547.488281 249.535156 555.273438 250.175781 557.714844 247.335938 C 558.089844 246.902344 558.160156 246.386719 557.90625 245.878906 C 556.492188 243.058594 549.21875 243.8125 546.929688 243.773438 C 538.582031 243.621094 530.226562 243.726562 521.875 243.75 C 505.402344 243.789062 488.925781 243.929688 472.457031 244.15625 C 439.527344 244.621094 406.546875 246.417969 373.621094 246.125 C 372.074219 246.109375 372.070312 248.519531 373.621094 248.53125 C 397.082031 248.738281 420.5625 247.539062 444.015625 247.058594 C 468.066406 246.5625 492.117188 246.265625 516.171875 246.171875 C 527.394531 246.128906 538.714844 245.742188 549.929688 246.269531 C 551.074219 246.324219 552.21875 246.472656 553.359375 246.519531 C 553.957031 246.617188 554.550781 246.714844 555.148438 246.816406 C 554.988281 246.613281 554.828125 246.40625 554.667969 246.199219 C 551.855469 246.914062 548.800781 247.023438 545.910156 247.214844 C 540.359375 247.578125 534.789062 247.769531 529.222656 247.894531 C 505.628906 248.433594 482.011719 248.042969 458.417969 247.609375 C 431.066406 247.105469 403.714844 246.4375 376.355469 246.480469 C 374.808594 246.484375 374.804688 248.890625 376.355469 248.890625 " fill-opacity="1" fill-rule="nonzero"/><path fill="#000000" d="M 368.710938 249.074219 C 369.035156 247.027344 368.652344 244.972656 366.429688 244.285156 C 364.566406 243.703125 361.847656 244.90625 361.457031 246.925781 C 361.304688 247.726562 361.21875 248.675781 361.652344 249.394531 C 362.183594 250.273438 363.109375 250.816406 364.058594 251.144531 C 365.851562 251.777344 368.378906 251.308594 368.710938 249.074219 C 368.804688 248.425781 368.550781 247.789062 367.871094 247.589844 C 367.304688 247.429688 366.480469 247.789062 366.386719 248.433594 C 366.269531 249.261719 365.4375 249.074219 364.835938 248.871094 C 364.054688 248.605469 363.476562 248.285156 363.808594 247.417969 C 364.023438 246.855469 365.0625 246.429688 365.640625 246.554688 C 366.570312 246.761719 366.511719 247.664062 366.386719 248.433594 C 366.144531 249.945312 368.464844 250.597656 368.710938 249.074219 " fill-opacity="1" fill-rule="nonzero"/><path fill="#000000" d="M 573.269531 246.8125 C 573.613281 244.890625 573.472656 243.148438 571.847656 242.324219 C 570.226562 241.496094 568.921875 241.914062 567.394531 242.90625 C 566.777344 243.308594 566.214844 243.914062 566.183594 244.652344 C 566.164062 245.136719 565.949219 246.269531 566.183594 246.699219 C 566.917969 248.011719 568.441406 248.585938 569.910156 248.929688 C 571.378906 249.269531 573.183594 248.320312 573.269531 246.8125 " fill-opacity="1" fill-rule="nonzero"/><path fill="#000000" d="M 574.433594 247.132812 C 574.855469 244.484375 574.417969 241.796875 571.523438 240.898438 C 569.128906 240.15625 565.496094 241.6875 565.023438 244.332031 C 564.839844 245.351562 564.703125 246.546875 565.253906 247.472656 C 565.933594 248.625 567.167969 249.316406 568.394531 249.746094 C 570.71875 250.566406 574 250.066406 574.433594 247.132812 C 574.652344 245.617188 572.335938 244.964844 572.109375 246.492188 C 571.890625 248.003906 570.347656 247.871094 569.230469 247.492188 C 567.886719 247.035156 567.003906 246.378906 567.367188 244.894531 C 567.660156 243.703125 569.515625 242.890625 570.671875 243.148438 C 572.324219 243.519531 572.332031 245.121094 572.109375 246.492188 C 571.867188 248.007812 574.1875 248.660156 574.433594 247.132812 " fill-opacity="1" fill-rule="nonzero"/><path fill="#000000" d="M 822.707031 247.0625 C 774.4375 246.988281 726.183594 249.191406 677.90625 248.613281 C 666.902344 248.476562 655.933594 248.179688 645.003906 246.898438 C 644.191406 246.804688 642.421875 247.140625 645.707031 247.09375 C 646.589844 247.082031 647.511719 246.9375 648.402344 246.882812 C 651.019531 246.726562 653.640625 246.738281 656.261719 246.730469 C 662.285156 246.707031 668.308594 246.714844 674.335938 246.726562 C 698.082031 246.777344 721.835938 247.015625 745.578125 247.453125 C 772.191406 247.941406 798.832031 249.347656 825.445312 249.109375 C 826.996094 249.09375 826.996094 246.691406 825.445312 246.703125 C 792.519531 246.996094 759.539062 245.199219 726.613281 244.738281 C 710.136719 244.507812 693.664062 244.371094 677.1875 244.328125 C 669.09375 244.308594 660.988281 244.222656 652.890625 244.335938 C 650.492188 244.371094 642.636719 243.519531 641.164062 246.457031 C 640.90625 246.972656 640.984375 247.484375 641.351562 247.914062 C 643.769531 250.726562 651.617188 250.113281 654.875 250.304688 C 662.246094 250.730469 669.628906 250.910156 677.011719 251.003906 C 693.140625 251.214844 709.269531 251.089844 725.394531 250.851562 C 757.832031 250.371094 790.265625 249.421875 822.707031 249.464844 C 824.257812 249.46875 824.257812 247.0625 822.707031 247.0625 " fill-opacity="1" fill-rule="nonzero"/><path fill="#000000" d="M 832.679688 249.011719 C 832.5625 248.3125 832.472656 247.464844 833.269531 247.191406 C 833.890625 246.976562 835.015625 247.359375 835.257812 247.992188 C 835.578125 248.824219 835.101562 249.125 834.371094 249.40625 C 833.761719 249.632812 832.808594 249.894531 832.679688 249.011719 C 832.457031 247.484375 830.132812 248.132812 830.359375 249.648438 C 830.671875 251.808594 833.101562 252.355469 834.871094 251.769531 C 835.824219 251.453125 836.769531 250.953125 837.335938 250.09375 C 837.839844 249.332031 837.769531 248.375 837.609375 247.507812 C 837.242188 245.550781 834.605469 244.328125 832.78125 244.816406 C 830.460938 245.4375 830.019531 247.550781 830.359375 249.648438 C 830.601562 251.179688 832.921875 250.53125 832.679688 249.011719 " fill-opacity="1" fill-rule="nonzero"/><path fill="#000000" d="M 625.796875 247.390625 C 625.457031 245.472656 625.59375 243.730469 627.21875 242.902344 C 628.839844 242.074219 630.144531 242.492188 631.671875 243.488281 C 632.289062 243.886719 632.855469 244.496094 632.882812 245.230469 C 632.902344 245.710938 633.121094 246.851562 632.882812 247.273438 C 632.152344 248.59375 630.625 249.164062 629.15625 249.507812 C 627.6875 249.851562 625.878906 248.898438 625.796875 247.390625 " fill-opacity="1" fill-rule="nonzero"/><path fill="#000000" d="M 626.953125 247.070312 C 626.753906 245.796875 626.691406 244.347656 628.109375 243.835938 C 629.332031 243.394531 631.371094 244.144531 631.695312 245.472656 C 632.046875 246.878906 631.3125 247.527344 630.035156 248.003906 C 628.890625 248.429688 627.191406 248.671875 626.953125 247.070312 C 626.734375 245.542969 624.414062 246.195312 624.636719 247.710938 C 625.046875 250.535156 628.183594 251.148438 630.476562 250.390625 C 631.710938 249.984375 632.964844 249.339844 633.703125 248.222656 C 634.355469 247.246094 634.246094 246.027344 634.046875 244.910156 C 633.589844 242.367188 630.105469 240.785156 627.753906 241.410156 C 624.714844 242.214844 624.199219 244.980469 624.636719 247.710938 C 624.878906 249.238281 627.199219 248.589844 626.953125 247.070312 " fill-opacity="1" fill-rule="nonzero"/><path fill="#000000" d="M 609.832031 251.179688 C 611.765625 248.03125 610.816406 243.644531 608.203125 241.039062 C 605.582031 238.429688 601.660156 237.445312 597.980469 237.730469 C 594.171875 238.023438 590.152344 239.894531 588.730469 243.4375 C 587.136719 247.417969 589.414062 252.046875 592.742188 254.742188 C 596.015625 257.390625 600.5625 258.726562 604.550781 257.382812 C 608.539062 256.039062 611.488281 251.589844 610.40625 247.527344 " fill-opacity="1" fill-rule="nonzero"/><path fill="#000000" d="M 610.875 251.785156 C 618.296875 236.761719 589.808594 229.984375 587.160156 244.648438 C 585.863281 251.835938 593.007812 258.179688 599.613281 259 C 606.585938 259.859375 612.832031 254.347656 611.5625 247.207031 C 611.292969 245.683594 608.972656 246.328125 609.242188 247.84375 C 611.558594 260.863281 588.703125 258.023438 589.421875 245.886719 C 590.121094 234 614.851562 238.3125 608.792969 250.570312 C 608.109375 251.957031 610.183594 253.179688 610.875 251.785156 " fill-opacity="1" fill-rule="nonzero"/><path fill="#000000" d="M 927.039062 323.679688 C 927.039062 325.195312 925.804688 326.425781 924.292969 326.425781 C 922.777344 326.425781 921.546875 325.1875 921.546875 323.679688 C 921.546875 322.160156 922.78125 320.929688 924.292969 320.929688 C 925.808594 320.929688 927.039062 322.160156 927.039062 323.679688 Z M 914.667969 321.578125 C 913.511719 321.578125 912.566406 322.519531 912.566406 323.679688 C 912.566406 324.835938 913.511719 325.777344 914.667969 325.777344 C 915.828125 325.777344 916.769531 324.835938 916.769531 323.679688 C 916.769531 322.519531 915.832031 321.578125 914.667969 321.578125 Z M 970.800781 266.472656 C 972.316406 266.472656 973.546875 265.234375 973.546875 263.726562 C 973.546875 262.210938 972.3125 260.980469 970.800781 260.980469 C 969.289062 260.980469 968.054688 262.210938 968.054688 263.726562 C 968.054688 265.234375 969.285156 266.472656 970.800781 266.472656 Z M 970.800781 256.203125 C 971.960938 256.203125 972.902344 255.261719 972.902344 254.101562 C 972.902344 252.945312 971.960938 252 970.800781 252 C 969.644531 252 968.699219 252.945312 968.699219 254.101562 C 968.699219 255.261719 969.644531 256.203125 970.800781 256.203125 Z M 1017.398438 326.304688 C 1018.914062 326.304688 1020.144531 325.070312 1020.144531 323.558594 C 1020.144531 322.042969 1018.914062 320.8125 1017.398438 320.8125 C 1015.882812 320.8125 1014.652344 322.042969 1014.652344 323.558594 C 1014.644531 325.070312 1015.882812 326.304688 1017.398438 326.304688 Z M 1027.015625 325.652344 C 1028.175781 325.652344 1029.117188 324.710938 1029.117188 323.550781 C 1029.117188 322.394531 1028.175781 321.449219 1027.015625 321.449219 C 1025.859375 321.449219 1024.914062 322.394531 1024.914062 323.550781 C 1024.914062 324.710938 1025.859375 325.652344 1027.015625 325.652344 Z M 974.199219 373.761719 C 974.199219 375.636719 972.675781 377.160156 970.800781 377.160156 C 968.925781 377.160156 967.402344 375.636719 967.402344 373.761719 C 967.402344 372.347656 968.277344 371.128906 969.515625 370.621094 C 966.945312 349.160156 954.507812 331.375 937.164062 324.652344 C 936.746094 326.054688 935.445312 327.074219 933.910156 327.074219 C 932.035156 327.074219 930.515625 325.550781 930.515625 323.679688 C 930.515625 321.804688 932.035156 320.28125 933.910156 320.28125 C 935.363281 320.28125 936.605469 321.199219 937.085938 322.484375 C 954.472656 315.785156 966.9375 297.976562 969.515625 276.484375 C 968.28125 275.976562 967.402344 274.757812 967.402344 273.34375 C 967.402344 271.46875 968.925781 269.945312 970.800781 269.945312 C 972.675781 269.945312 974.199219 271.46875 974.199219 273.34375 C 974.199219 274.757812 973.328125 275.976562 972.085938 276.484375 C 974.664062 297.996094 987.148438 315.808594 1004.542969 322.5 C 1004.984375 321.144531 1006.261719 320.160156 1007.769531 320.160156 C 1009.644531 320.160156 1011.164062 321.683594 1011.164062 323.558594 C 1011.164062 325.433594 1009.644531 326.957031 1007.769531 326.957031 C 1006.261719 326.957031 1004.984375 325.96875 1004.542969 324.613281 C 987.140625 331.300781 974.664062 349.117188 972.085938 370.632812 C 973.320312 371.128906 974.199219 372.347656 974.199219 373.761719 Z M 970.800781 366.101562 C 974.390625 346.566406 986.042969 330.511719 1001.988281 323.550781 C 986.042969 316.589844 974.390625 300.539062 970.800781 281.003906 C 967.210938 300.539062 955.558594 316.589844 939.613281 323.550781 C 955.558594 330.511719 967.210938 346.574219 970.800781 366.101562 Z M 970.800781 380.632812 C 969.285156 380.632812 968.054688 381.867188 968.054688 383.378906 C 968.054688 384.894531 969.289062 386.125 970.800781 386.125 C 972.3125 386.125 973.546875 384.894531 973.546875 383.378906 C 973.554688 381.867188 972.316406 380.632812 970.800781 380.632812 Z M 970.800781 390.902344 C 969.644531 390.902344 968.699219 391.84375 968.699219 393.003906 C 968.699219 394.160156 969.644531 395.105469 970.800781 395.105469 C 971.960938 395.105469 972.902344 394.160156 972.902344 393.003906 C 972.902344 391.84375 971.960938 390.902344 970.800781 390.902344 Z M 970.800781 390.902344 " fill-opacity="1" fill-rule="nonzero"/><g clip-path="url(#c5271a643a)"><path fill="#000000" d="M 999.871094 380.210938 C 999.160156 380.210938 998.585938 379.636719 998.585938 378.925781 C 998.585938 378.222656 999.160156 377.640625 999.871094 377.640625 C 1000.574219 377.640625 1001.152344 378.214844 1001.152344 378.925781 C 1001.152344 379.628906 1000.574219 380.210938 999.871094 380.210938 Z M 996.066406 377.898438 C 995.5 377.898438 995.039062 378.359375 995.039062 378.925781 C 995.039062 379.492188 995.5 379.953125 996.066406 379.953125 C 996.632812 379.953125 997.09375 379.492188 997.09375 378.925781 C 997.09375 378.359375 996.628906 377.898438 996.066406 377.898438 Z M 1018.261719 356.488281 C 1018.96875 356.488281 1019.546875 355.917969 1019.546875 355.207031 C 1019.546875 354.496094 1018.972656 353.921875 1018.261719 353.921875 C 1017.558594 353.921875 1016.980469 354.496094 1016.980469 355.207031 C 1016.980469 355.917969 1017.558594 356.488281 1018.261719 356.488281 Z M 1018.261719 352.429688 C 1018.832031 352.429688 1019.289062 351.96875 1019.289062 351.402344 C 1019.289062 350.835938 1018.832031 350.375 1018.261719 350.375 C 1017.695312 350.375 1017.238281 350.835938 1017.238281 351.402344 C 1017.238281 351.96875 1017.695312 352.429688 1018.261719 352.429688 Z M 1034.429688 378.871094 C 1034.429688 379.71875 1033.738281 380.410156 1032.890625 380.410156 C 1032.429688 380.410156 1032.019531 380.203125 1031.738281 379.878906 C 1025.082031 382.484375 1020.324219 389.355469 1019.355469 397.648438 C 1019.636719 397.929688 1019.804688 398.308594 1019.804688 398.734375 C 1019.804688 399.582031 1019.109375 400.273438 1018.261719 400.273438 C 1017.414062 400.273438 1016.722656 399.582031 1016.722656 398.734375 C 1016.722656 398.308594 1016.894531 397.929688 1017.171875 397.648438 C 1016.203125 389.378906 1011.46875 382.527344 1004.847656 379.90625 C 1004.566406 380.246094 1004.144531 380.464844 1003.671875 380.464844 C 1002.824219 380.464844 1002.132812 379.773438 1002.132812 378.925781 C 1002.132812 378.90625 1002.136719 378.894531 1002.136719 378.878906 C 1002.167969 378.054688 1002.84375 377.390625 1003.671875 377.390625 C 1004.113281 377.390625 1004.507812 377.582031 1004.789062 377.875 C 1011.445312 375.273438 1016.210938 368.398438 1017.175781 360.101562 C 1016.894531 359.820312 1016.730469 359.4375 1016.730469 359.015625 C 1016.730469 358.167969 1017.421875 357.476562 1018.269531 357.476562 C 1019.117188 357.476562 1019.808594 358.167969 1019.808594 359.015625 C 1019.808594 359.4375 1019.636719 359.820312 1019.363281 360.101562 C 1020.328125 368.394531 1025.085938 375.265625 1031.742188 377.867188 C 1032.023438 377.546875 1032.4375 377.335938 1032.894531 377.335938 C 1033.738281 377.335938 1034.429688 378.023438 1034.429688 378.871094 Z M 1029.242188 378.871094 C 1024.007812 376.15625 1020.046875 370.96875 1018.269531 364.632812 C 1016.484375 370.96875 1012.53125 376.148438 1007.296875 378.871094 C 1012.53125 381.589844 1016.492188 386.777344 1018.269531 393.109375 C 1020.046875 386.777344 1024.007812 381.59375 1029.242188 378.871094 Z M 1036.691406 377.59375 C 1035.988281 377.59375 1035.410156 378.167969 1035.410156 378.878906 C 1035.410156 379.582031 1035.984375 380.160156 1036.691406 380.160156 C 1037.398438 380.160156 1037.976562 379.589844 1037.976562 378.878906 C 1037.976562 378.167969 1037.402344 377.59375 1036.691406 377.59375 Z M 1040.503906 377.84375 C 1039.933594 377.84375 1039.476562 378.304688 1039.476562 378.871094 C 1039.476562 379.4375 1039.933594 379.898438 1040.503906 379.898438 C 1041.070312 379.898438 1041.527344 379.4375 1041.527344 378.871094 C 1041.527344 378.308594 1041.070312 377.84375 1040.503906 377.84375 Z M 1018.261719 401.253906 C 1017.558594 401.253906 1016.980469 401.828125 1016.980469 402.539062 C 1016.980469 403.242188 1017.554688 403.820312 1018.261719 403.820312 C 1018.96875 403.820312 1019.546875 403.246094 1019.546875 402.539062 C 1019.546875 401.832031 1018.972656 401.253906 1018.261719 401.253906 Z M 1018.261719 405.320312 C 1017.695312 405.320312 1017.238281 405.777344 1017.238281 406.347656 C 1017.238281 406.914062 1017.695312 407.375 1018.261719 407.375 C 1018.832031 407.375 1019.289062 406.914062 1019.289062 406.347656 C 1019.289062 405.777344 1018.832031 405.320312 1018.261719 405.320312 Z M 1018.261719 405.320312 " fill-opacity="1" fill-rule="nonzero"/></g><g clip-path="url(#14c8934c00)"><path fill="#000000" d="M 917.769531 240.574219 C 917.769531 241.277344 917.195312 241.855469 916.484375 241.855469 C 915.773438 241.855469 915.199219 241.285156 915.199219 240.574219 C 915.199219 239.863281 915.773438 239.289062 916.484375 239.289062 C 917.195312 239.289062 917.769531 239.863281 917.769531 240.574219 Z M 913.707031 240.574219 C 913.707031 240.007812 913.25 239.546875 912.679688 239.546875 C 912.113281 239.546875 911.65625 240.007812 911.65625 240.574219 C 911.65625 241.140625 912.113281 241.601562 912.679688 241.601562 C 913.25 241.601562 913.707031 241.132812 913.707031 240.574219 Z M 934.882812 218.136719 C 935.589844 218.136719 936.167969 217.566406 936.167969 216.855469 C 936.167969 216.148438 935.59375 215.570312 934.882812 215.570312 C 934.175781 215.570312 933.601562 216.144531 933.601562 216.855469 C 933.601562 217.566406 934.175781 218.136719 934.882812 218.136719 Z M 934.882812 214.078125 C 935.453125 214.078125 935.910156 213.617188 935.910156 213.050781 C 935.910156 212.484375 935.453125 212.023438 934.882812 212.023438 C 934.316406 212.023438 933.859375 212.484375 933.859375 213.050781 C 933.859375 213.617188 934.316406 214.078125 934.882812 214.078125 Z M 953.3125 241.804688 C 954.023438 241.804688 954.597656 241.230469 954.597656 240.519531 C 954.597656 239.816406 954.023438 239.234375 953.3125 239.234375 C 952.609375 239.234375 952.03125 239.808594 952.03125 240.519531 C 952.03125 241.230469 952.605469 241.804688 953.3125 241.804688 Z M 957.117188 241.546875 C 957.683594 241.546875 958.144531 241.085938 958.144531 240.519531 C 958.144531 239.953125 957.683594 239.492188 957.117188 239.492188 C 956.550781 239.492188 956.089844 239.953125 956.089844 240.519531 C 956.089844 241.085938 956.550781 241.546875 957.117188 241.546875 Z M 933.792969 259.296875 C 932.824219 251.027344 928.089844 244.171875 921.464844 241.550781 C 921.183594 241.894531 920.757812 242.113281 920.289062 242.113281 C 919.441406 242.113281 918.746094 241.421875 918.746094 240.574219 C 918.746094 240.554688 918.753906 240.542969 918.753906 240.527344 L 918.746094 240.527344 L 918.753906 240.527344 C 918.78125 239.703125 919.457031 239.039062 920.289062 239.039062 C 920.730469 239.039062 921.125 239.230469 921.402344 239.523438 C 928.0625 236.917969 932.824219 230.046875 933.792969 221.753906 C 933.511719 221.476562 933.34375 221.09375 933.34375 220.667969 C 933.34375 219.820312 934.035156 219.128906 934.882812 219.128906 C 935.730469 219.128906 936.425781 219.820312 936.425781 220.667969 C 936.425781 221.09375 936.25 221.476562 935.976562 221.753906 C 936.945312 230.046875 941.703125 236.917969 948.359375 239.523438 C 948.640625 239.199219 949.050781 238.992188 949.511719 238.992188 C 950.359375 238.992188 951.050781 239.683594 951.050781 240.53125 C 951.050781 241.378906 950.359375 242.070312 949.511719 242.070312 C 949.050781 242.070312 948.640625 241.863281 948.359375 241.539062 C 941.703125 244.144531 936.945312 251.015625 935.976562 259.308594 C 936.257812 259.589844 936.425781 259.96875 936.425781 260.394531 C 936.425781 261.242188 935.730469 261.933594 934.882812 261.933594 C 934.035156 261.933594 933.34375 261.242188 933.34375 260.394531 C 933.34375 259.957031 933.515625 259.570312 933.792969 259.296875 Z M 934.882812 254.757812 C 936.667969 248.425781 940.628906 243.242188 945.859375 240.519531 C 940.621094 237.804688 936.667969 232.613281 934.882812 226.28125 C 933.097656 232.613281 929.148438 237.804688 923.910156 240.519531 C 929.140625 243.234375 933.097656 248.425781 934.882812 254.757812 Z M 934.882812 262.902344 C 934.175781 262.902344 933.601562 263.476562 933.601562 264.183594 C 933.601562 264.890625 934.175781 265.46875 934.882812 265.46875 C 935.589844 265.46875 936.167969 264.894531 936.167969 264.183594 C 936.167969 263.480469 935.589844 262.902344 934.882812 262.902344 Z M 934.882812 266.96875 C 934.316406 266.96875 933.859375 267.425781 933.859375 267.996094 C 933.859375 268.5625 934.316406 269.019531 934.882812 269.019531 C 935.453125 269.019531 935.910156 268.5625 935.910156 267.996094 C 935.910156 267.425781 935.453125 266.96875 934.882812 266.96875 Z M 934.882812 266.96875 " fill-opacity="1" fill-rule="nonzero"/></g><g clip-path="url(#8e604f5611)"><path fill="#000000" d="M 1011.882812 425.019531 C 1011.816406 424.335938 1011.242188 423.792969 1010.53125 423.792969 C 1010.175781 423.792969 1009.84375 423.933594 1009.605469 424.160156 C 1003.960938 421.953125 999.929688 416.109375 999.128906 409.058594 C 999.3125 408.824219 999.425781 408.539062 999.425781 408.222656 C 999.425781 407.46875 998.820312 406.859375 998.066406 406.859375 C 997.3125 406.859375 996.707031 407.46875 996.707031 408.222656 C 996.707031 408.539062 996.820312 408.828125 997.003906 409.058594 C 996.203125 416.113281 992.160156 421.964844 986.515625 424.167969 C 986.277344 423.964844 985.972656 423.832031 985.628906 423.832031 C 984.945312 423.832031 984.382812 424.347656 984.289062 425.007812 L 983.910156 425.152344 L 984.28125 425.289062 C 984.328125 425.992188 984.914062 426.554688 985.628906 426.554688 C 986 426.554688 986.335938 426.40625 986.578125 426.167969 C 992.199219 428.386719 996.203125 434.222656 997.003906 441.246094 C 996.820312 441.480469 996.707031 441.765625 996.707031 442.082031 C 996.707031 442.835938 997.3125 443.445312 998.066406 443.445312 C 998.820312 443.445312 999.425781 442.835938 999.425781 442.082031 C 999.425781 441.765625 999.3125 441.472656 999.128906 441.246094 C 999.929688 434.195312 1003.960938 428.351562 1009.605469 426.144531 C 1009.851562 426.371094 1010.175781 426.511719 1010.53125 426.511719 C 1011.238281 426.511719 1011.816406 425.96875 1011.882812 425.285156 L 1012.222656 425.160156 Z M 998.066406 436.78125 C 996.503906 431.652344 993.265625 427.449219 989.015625 425.152344 C 993.265625 422.855469 996.503906 418.652344 998.066406 413.523438 C 999.628906 418.652344 1002.867188 422.855469 1007.117188 425.152344 C 1002.867188 427.449219 999.628906 431.652344 998.066406 436.78125 Z M 983.527344 425.195312 C 983.527344 425.820312 983.015625 426.335938 982.390625 426.335938 C 981.761719 426.335938 981.25 425.820312 981.25 425.195312 C 981.25 424.566406 981.761719 424.054688 982.390625 424.054688 C 983.015625 424.054688 983.527344 424.566406 983.527344 425.195312 Z M 980.066406 425.195312 C 980.066406 425.703125 979.65625 426.121094 979.140625 426.121094 C 978.632812 426.121094 978.214844 425.707031 978.214844 425.195312 C 978.214844 424.6875 978.628906 424.269531 979.140625 424.269531 C 979.65625 424.273438 980.066406 424.6875 980.066406 425.195312 Z M 996.925781 404.980469 C 996.925781 404.351562 997.441406 403.839844 998.066406 403.839844 C 998.695312 403.839844 999.207031 404.351562 999.207031 404.980469 C 999.207031 405.605469 998.695312 406.121094 998.066406 406.121094 C 997.441406 406.121094 996.925781 405.605469 996.925781 404.980469 Z M 997.148438 401.738281 C 997.148438 401.230469 997.558594 400.8125 998.074219 400.8125 C 998.578125 400.8125 998.996094 401.222656 998.996094 401.738281 C 998.996094 402.246094 998.585938 402.664062 998.074219 402.664062 C 997.558594 402.65625 997.148438 402.246094 997.148438 401.738281 Z M 1014.921875 425.152344 C 1014.921875 425.777344 1014.40625 426.292969 1013.78125 426.292969 C 1013.152344 426.292969 1012.640625 425.777344 1012.640625 425.152344 C 1012.640625 424.523438 1013.152344 424.011719 1013.78125 424.011719 C 1014.40625 424.011719 1014.921875 424.523438 1014.921875 425.152344 Z M 1017.945312 425.152344 C 1017.945312 425.660156 1017.535156 426.078125 1017.023438 426.078125 C 1016.515625 426.078125 1016.097656 425.664062 1016.097656 425.152344 C 1016.097656 424.644531 1016.507812 424.226562 1017.023438 424.226562 C 1017.527344 424.226562 1017.945312 424.644531 1017.945312 425.152344 Z M 999.207031 445.324219 C 999.207031 445.953125 998.695312 446.464844 998.066406 446.464844 C 997.441406 446.464844 996.925781 445.953125 996.925781 445.324219 C 996.925781 444.699219 997.441406 444.183594 998.066406 444.183594 C 998.699219 444.183594 999.207031 444.699219 999.207031 445.324219 Z M 998.992188 448.566406 C 998.992188 449.074219 998.578125 449.492188 998.066406 449.492188 C 997.558594 449.492188 997.140625 449.082031 997.140625 448.566406 C 997.140625 448.058594 997.554688 447.640625 998.066406 447.640625 C 998.578125 447.648438 998.992188 448.058594 998.992188 448.566406 Z M 998.992188 448.566406 " fill-opacity="1" fill-rule="nonzero"/></g><g fill="#000000" fill-opacity="1"><g transform="translate(456.821455, 484.84037)"><g><path d="M 17.03125 -8.734375 C 17.03125 -9.703125 16.671875 -10.539062 15.953125 -11.25 C 15.234375 -11.96875 14.378906 -12.328125 13.390625 -12.328125 L 9.21875 -12.328125 L 9.21875 -5.140625 L 13.390625 -5.140625 C 14.378906 -5.140625 15.234375 -5.488281 15.953125 -6.1875 C 16.671875 -6.882812 17.03125 -7.734375 17.03125 -8.734375 Z M 14.96875 -21.203125 C 14.96875 -22.160156 14.625 -22.976562 13.9375 -23.65625 C 13.25 -24.332031 12.4375 -24.671875 11.5 -24.671875 L 9.21875 -24.671875 L 9.21875 -17.734375 L 11.5 -17.734375 C 12.4375 -17.734375 13.25 -18.078125 13.9375 -18.765625 C 14.625 -19.453125 14.96875 -20.265625 14.96875 -21.203125 Z M 23.75 -8.5625 C 23.75 -5.988281 22.957031 -3.914062 21.375 -2.34375 C 19.789062 -0.78125 17.566406 0 14.703125 0 L 2.640625 0 L 2.640625 -29.84375 L 12.90625 -29.84375 C 14.601562 -29.84375 16.070312 -29.503906 17.3125 -28.828125 C 18.5625 -28.160156 19.53125 -27.265625 20.21875 -26.140625 C 20.90625 -25.015625 21.25 -23.765625 21.25 -22.390625 C 21.25 -20.867188 20.929688 -19.554688 20.296875 -18.453125 C 19.671875 -17.359375 18.800781 -16.5625 17.6875 -16.0625 C 19.351562 -15.6875 20.78125 -14.847656 21.96875 -13.546875 C 23.15625 -12.242188 23.75 -10.582031 23.75 -8.5625 Z M 23.75 -8.5625 "/></g></g></g><g fill="#000000" fill-opacity="1"><g transform="translate(485.656452, 484.84037)"><g><path d="M 18.875 -11.40625 L 15.09375 -22.03125 L 11.328125 -11.40625 Z M 30.015625 0 L 22.953125 0 L 20.796875 -6.015625 L 9.4375 -6.015625 L 7.28125 0 L 0.21875 0 L 12.328125 -29.84375 L 17.90625 -29.84375 Z M 30.015625 0 "/></g></g></g><g fill="#000000" fill-opacity="1"><g transform="translate(520.547637, 484.84037)"><g><path d="M 9.21875 -10.671875 L 9.21875 0 L 2.640625 0 L 2.640625 -29.84375 L 13.828125 -29.84375 C 15.429688 -29.84375 16.925781 -29.441406 18.3125 -28.640625 C 19.707031 -27.835938 20.828125 -26.71875 21.671875 -25.28125 C 22.523438 -23.84375 22.953125 -22.175781 22.953125 -20.28125 C 22.953125 -18.613281 22.644531 -17.132812 22.03125 -15.84375 C 21.414062 -14.550781 20.597656 -13.492188 19.578125 -12.671875 C 18.554688 -11.859375 17.414062 -11.289062 16.15625 -10.96875 L 24.703125 0 L 16.375 0 L 9.265625 -10.671875 Z M 12.734375 -24.671875 L 9.21875 -24.671875 L 9.21875 -15.84375 L 12.734375 -15.84375 C 13.691406 -15.84375 14.585938 -16.222656 15.421875 -16.984375 C 16.253906 -17.742188 16.671875 -18.84375 16.671875 -20.28125 C 16.671875 -21.65625 16.253906 -22.726562 15.421875 -23.5 C 14.585938 -24.28125 13.691406 -24.671875 12.734375 -24.671875 Z M 12.734375 -24.671875 "/></g></g></g><g fill="#000000" fill-opacity="1"><g transform="translate(549.38264, 484.84037)"><g><path d="M 24.1875 -10.140625 L 31.515625 -10.140625 C 30.835938 -8.085938 29.78125 -6.265625 28.34375 -4.671875 C 26.914062 -3.078125 25.222656 -1.828125 23.265625 -0.921875 C 21.304688 -0.015625 19.179688 0.4375 16.890625 0.4375 C 14.785156 0.4375 12.800781 0.0390625 10.9375 -0.75 C 9.082031 -1.539062 7.445312 -2.644531 6.03125 -4.0625 C 4.613281 -5.476562 3.507812 -7.113281 2.71875 -8.96875 C 1.925781 -10.832031 1.53125 -12.816406 1.53125 -14.921875 C 1.53125 -17.023438 1.925781 -19.003906 2.71875 -20.859375 C 3.507812 -22.722656 4.613281 -24.363281 6.03125 -25.78125 C 7.445312 -27.207031 9.082031 -28.3125 10.9375 -29.09375 C 12.800781 -29.882812 14.785156 -30.28125 16.890625 -30.28125 C 19.179688 -30.28125 21.296875 -29.828125 23.234375 -28.921875 C 25.179688 -28.015625 26.867188 -26.773438 28.296875 -25.203125 C 29.734375 -23.640625 30.789062 -21.835938 31.46875 -19.796875 L 24.140625 -19.796875 C 23.523438 -21.140625 22.546875 -22.195312 21.203125 -22.96875 C 19.859375 -23.75 18.421875 -24.140625 16.890625 -24.140625 C 15.285156 -24.140625 13.820312 -23.722656 12.5 -22.890625 C 11.1875 -22.054688 10.140625 -20.941406 9.359375 -19.546875 C 8.585938 -18.160156 8.203125 -16.617188 8.203125 -14.921875 C 8.203125 -13.222656 8.585938 -11.675781 9.359375 -10.28125 C 10.140625 -8.894531 11.1875 -7.785156 12.5 -6.953125 C 13.820312 -6.117188 15.285156 -5.703125 16.890625 -5.703125 C 18.441406 -5.703125 19.890625 -6.109375 21.234375 -6.921875 C 22.585938 -7.742188 23.570312 -8.816406 24.1875 -10.140625 Z M 24.1875 -10.140625 "/></g></g></g><g fill="#000000" fill-opacity="1"><g transform="translate(586.643634, 484.84037)"><g><path d="M 19.921875 -5.96875 L 19.921875 0 L 2.640625 0 L 2.640625 -29.84375 L 19.921875 -29.84375 L 19.921875 -23.875 L 9.21875 -23.875 L 9.21875 -17.953125 L 19.484375 -17.953125 L 19.484375 -11.984375 L 9.21875 -11.984375 L 9.21875 -5.96875 Z M 19.921875 -5.96875 "/></g></g></g><g fill="#000000" fill-opacity="1"><g transform="translate(613.854857, 484.84037)"><g><path d="M 2.640625 0 L 2.640625 -29.84375 L 9.21875 -29.84375 L 9.21875 -5.96875 L 19.921875 -5.96875 L 19.921875 0 Z M 2.640625 0 "/></g></g></g><g fill="#000000" fill-opacity="1"><g transform="translate(639.968948, 484.84037)"><g><path d="M 25.671875 -14.96875 C 25.671875 -16.519531 25.257812 -17.957031 24.4375 -19.28125 C 23.625 -20.613281 22.550781 -21.691406 21.21875 -22.515625 C 19.882812 -23.335938 18.441406 -23.75 16.890625 -23.75 C 15.367188 -23.75 13.9375 -23.335938 12.59375 -22.515625 C 11.25 -21.691406 10.164062 -20.613281 9.34375 -19.28125 C 8.53125 -17.957031 8.125 -16.519531 8.125 -14.96875 C 8.125 -13.445312 8.53125 -12.007812 9.34375 -10.65625 C 10.164062 -9.3125 11.25 -8.222656 12.59375 -7.390625 C 13.9375 -6.554688 15.367188 -6.140625 16.890625 -6.140625 C 18.441406 -6.140625 19.882812 -6.554688 21.21875 -7.390625 C 22.550781 -8.222656 23.625 -9.3125 24.4375 -10.65625 C 25.257812 -12.007812 25.671875 -13.445312 25.671875 -14.96875 Z M 32.265625 -14.921875 C 32.265625 -12.867188 31.851562 -10.914062 31.03125 -9.0625 C 30.207031 -7.207031 29.085938 -5.566406 27.671875 -4.140625 C 26.253906 -2.722656 24.625 -1.601562 22.78125 -0.78125 C 20.9375 0.03125 18.972656 0.4375 16.890625 0.4375 C 14.847656 0.4375 12.894531 0.03125 11.03125 -0.78125 C 9.175781 -1.601562 7.539062 -2.722656 6.125 -4.140625 C 4.707031 -5.566406 3.585938 -7.207031 2.765625 -9.0625 C 1.941406 -10.914062 1.53125 -12.867188 1.53125 -14.921875 C 1.53125 -17.003906 1.941406 -18.960938 2.765625 -20.796875 C 3.585938 -22.640625 4.707031 -24.269531 6.125 -25.6875 C 7.539062 -27.113281 9.175781 -28.234375 11.03125 -29.046875 C 12.894531 -29.867188 14.847656 -30.28125 16.890625 -30.28125 C 18.972656 -30.28125 20.9375 -29.867188 22.78125 -29.046875 C 24.625 -28.234375 26.253906 -27.113281 27.671875 -25.6875 C 29.085938 -24.269531 30.207031 -22.640625 31.03125 -20.796875 C 31.851562 -18.960938 32.265625 -17.003906 32.265625 -14.921875 Z M 32.265625 -14.921875 "/></g></g></g><g fill="#000000" fill-opacity="1"><g transform="translate(678.41484, 484.84037)"><g><path d="M 26.078125 0 L 19.484375 0 L 9.21875 -18.609375 L 9.21875 0 L 2.640625 0 L 2.640625 -29.84375 L 9.21875 -29.84375 L 19.484375 -11.234375 L 19.484375 -29.84375 L 26.078125 -29.84375 Z M 26.078125 0 "/></g></g></g><g fill="#000000" fill-opacity="1"><g transform="translate(711.770036, 484.84037)"><g><path d="M 18.875 -11.40625 L 15.09375 -22.03125 L 11.328125 -11.40625 Z M 30.015625 0 L 22.953125 0 L 20.796875 -6.015625 L 9.4375 -6.015625 L 7.28125 0 L 0.21875 0 L 12.328125 -29.84375 L 17.90625 -29.84375 Z M 30.015625 0 "/></g></g></g></svg>